<svg xmlns="http://www.w3.org/2000/svg" viewBox="0 0 430.605 241.829"><g fill="#fff"><path d="m0 241.83h10.974l18.01-26.72 18.08 26.72h10.797l-28.868-43.66z"/><path d="m92.67 222.71c8.04-1.56 12.44-5.417 12.44-10.982 0-9.842-11.129-13.334-20.657-13.334-.236 0-23.591.392-23.591 6.655v36.783h9.128v-18.619h11.682l.035.044c3.165 5.733 8.872 13.86 14.548 17.906 1.486 1.057 4.046 1.621 6.106 2.075l.384-1.226-.275 1.249.871.195 4.474-6.992-1.594-.502c-5.918-1.864-10.779-9.01-13.551-13.252m-22.68-14.815c4.975-.954 9.283-1.4 13.485-1.4 4.507 0 12.07.73 12.07 5.61 0 3.01-7.21 3.01-9.577 3.01h-15.981v-7.221"/><path d="m113.76 200.19h9.128v41.643h-9.128z"/><path d="m153.48 216.81l-2.543-.324c-2.874-.376-11.543-1.503-12.231-4.808.33-2.605 5.293-4.187 8.209-4.715 1.763-.302 3.748-.469 5.589-.469 6.214 0 12.191 1.309 17.757 3.895l.978.452 4.766-6.876-1.325-.658c-6.732-3.341-13.683-4.965-21.251-4.965-8.685 0-15.54 2.134-20.373 6.335-1.898 1.625-3.924 4.516-3.924 7.759 0 3.716 2.42 8.634 13.937 10.969 1.631.338 3.828.656 6.153.99 6.163.89 17.637 2.546 17.637 5.516 0 1.676-2.341 3.113-4.52 3.898-2.742.959-5.869 1.449-9.291 1.449-6.183 0-12.919-1.521-17.589-3.98l-1-.523-4.849 7.04 1.334.654c7.124 3.479 13.245 4.9 21.13 4.9 10.07 0 21.694-3.145 24.15-11.988.201-.805.201-1.307.201-1.888 0-1.733-.359-3-1.21-4.343-3.56-5.989-14.869-7.441-21.73-8.323"/><path d="m222.91 208.2l4.912-7.225-1.952-.339c-8.732-1.513-16.544-2.247-23.886-2.247-6.844 0-14.497.734-23.396 2.247l-2.036.347 5.322 7.307.789-.141c4.745-.84 9.524-1.34 14.947-1.56v35.24h9.239v-35.17c5.437.297 10.234.858 15.293 1.448l.768.091"/><path d="m250.51 198.45c-12.07 0-28.79 7.877-28.79 22.666 0 14.439 14.487 22.23 28.12 22.23 11.769 0 28.796-8.03 28.796-22.559 0-14.51-14.491-22.339-28.13-22.339m-.723 8.145c7.976 0 19.513 5.21 19.513 14.63 0 10.181-11.555 13.977-18.839 13.977-8.184 0-19.515-5.103-19.515-14.682 0-10.217 11.27-13.925 18.841-13.925"/><path d="m298.15 198.39c-6.843 0-14.494.734-23.391 2.247l-2.033.347 5.315 7.307.789-.141c4.743-.84 9.524-1.34 14.946-1.56v35.24h9.239v-35.17c5.43.297 10.231.858 15.29 1.448l.77.091 4.913-7.225-1.952-.339c-8.73-1.513-16.544-2.247-23.886-2.247"/><path d="m368.58 232.96c-6.85 1.611-12.521 2.298-18.976 2.298-5.646 0-10.62-.49-13.872-1.357v-33.71h-9.179v37.11c0 5.764 17.619 6.05 21.15 6.05 8.126 0 15.618-.235 24.963-3.1l1.69-.518-4.939-6.977-.838.203"/><path d="m418.78 232.96c-6.846 1.611-12.521 2.298-18.974 2.298-5.579 0-10.517-.49-13.761-1.357v-10.255h24.58l5.421-7.771h-30v-8.114c4.954-1.076 7.394-1.161 10.453-1.161 7.939 0 15.257.72 22.375 2.201l.798.166 5.114-6.922-1.778-.504c-7.292-2.072-14.304-3.035-22.06-3.035-15.415 0-23.504 2.09-24.05 6.214-.119.389-.134.804-.134 1.201v31.379c0 5.764 17.612 6.05 21.14 6.05 8.124 0 15.612-.235 24.963-3.1l1.691-.518-4.942-6.977-.837.202"/><path d="m180.3 80.64c5.699 1.833 11.448 2.858 17.11 4.689-5.439-2.178-15.966-6.573-15.966-6.573-.536.455-.877.946-1.144 1.884"/><path d="m197.81 104.12c-2.01-.754-3.989-1.562-5.938-2.401 4.736 3.865 10.53 7.194 16.982 9.252 9.324 2.975 16.461.697 20.748-3.801-1.189.29-2.445.522-3.744.697-12.731 1.651-26.351-3.125-28.05-3.747"/><path d="m191.15 55.31c.215.112.407.216.605.323 2.124 1.087 15.631 8.07 24.936 14.562 7.405 5.165 12.55 9.744 14.785 11.834-.845-2.869-2.707-6.01-7.309-10.231-14.948-13.718-29.648-17.787-44.2-26.04-7.279-4.132-13.618-8.333-19.15-14.08-2.696-2.79-4.784-5.94-6.298-9.195-2.281 2.069-4.436 4.271-6.486 6.571 4.93 4.358 10.39 8.19 15.942 11.535 11.385 6.854 17.686 9.737 27.18 14.719"/><path d="m218.15 100.4c-12.736-4.141-25.357-7.676-37.477-12.561.36.984.647 1.534 1.123 2.375 11.151 3.053 20.497 8.557 30.25 12.182 3.606 1.351 10.06 3.19 16.193 3.037.616-.03 1.09-.046 1.704-.152-3.445-2.1-7.672-3.552-11.792-4.881"/><path d="m189.65 71.08c-13.544-6.58-26.808-13.521-39.32-22.562-3.805-2.751-7.191-5.765-10.294-8.963-.956 1.479-1.871 2.986-2.741 4.524 4.402 4.293 9.97 8.597 16.521 12.198 13.08 7.185 23.947 9.896 35.83 14.803"/><path d="m249.79 8.308c2.889 7.551 9.471 24.727 9.471 24.727l27.908 72.32c0 0 3.331 8.479 5.661 14.354 4.215-10.19 6.556-21.358 6.556-33.08 0-34.592-20.283-64.44-49.596-78.33"/><path d="m243.48 93.66c-.168-2.79-1.845-5.74-5.109-7.683-1.485-.862-3.155-1.513-4.907-1.937 1.733 1.956 6.149 7.371 8.454 14.03 1.417-1.687 1.618-3.501 1.562-4.415"/><path d="m263.55 116.08l-23.387-64.16-13.629-37.38-9.273 28.06c-.215-.146-.429-.292-.639-.436-2.602-1.763-5.062-3.432-7.261-5.084-1.593-1.193-3.96-3.135-6.01-5.407l11.542-31.622c-.709-.016-1.419-.054-2.135-.054-21.663 0-41.45 7.97-56.643 21.11 2.226 3.164 5.208 5.714 8.554 8.528 11.918 9.999 32.02 18.12 45.941 26.356 17.69 10.458 21.466 18.904 22.646 27.625 8.167 1.935 10.685 6.394 10.988 9.957.178 1.923-.497 3.952-1.883 5.873 1.255 4.295 1.541 9.02-.353 13.631-6.962 16.934-27.09 5.73-27.09 5.73s-.261-.146-.101-.485c.164-.349.52-.159.52-.159s11.643 4.098 16.581.28c5.751-4.445 1.919-9.553-.374-11.845-.394.134-.792.259-1.194.369-.776.892-1.635 1.712-2.607 2.482-3.076 2.47-6.908 4.069-11.267 4.581-10.851 1.282-21.458-2.736-29.11-9.153-2.919-2.438-5.536-5.223-7.458-8.256-5.275-2.083-10.685-3.812-16.727-4.53-4.061-.483-8.57.351-10.843 2.812-1.124 1.242-1.232 2.824-.31 4.283.439.696 1.092 1.17 1.86 1.753.104.077.082.184.018.222-.069.037-.188.004-.249-.031-4.448-2.383-3.82-7.03-.192-9.506 4.323-2.965 9.966-3.91 15.954-3.513 2.621.156 5.114.501 7.527.972-.149-.944-.227-1.898-.203-2.87-2.357-1.021-4.708-2.107-7.01-3.247-10.34-5.159-18.928-10.874-25.501-18.505-.145-.168-.021-.354.143-.397.099-.026.207.025.295.089 6.76 4.848 16.392 9.523 22.542 11.755 3.473 1.279 7.831 3.095 11.318 4.221.836-1.11 1.13-1.376 1.799-1.871-8.816-3.839-19.849-8.9-30.972-15.599-6.968-4.198-11.708-8.756-14.934-13.05-5.317 11.227-8.299 23.772-8.299 37.02 0 24.26 9.979 46.17 26.04 61.896 7.74-1.869 11.759-8.833 15.802-20.07l9.617-26.11c1.79 2.272 3.924 4.469 6.421 6.55 2.824 2.37 5.941 4.368 9.22 5.985l-5.322 15.585c-2.033 5.652-3.189 11.12-3.189 15.05 0 2.84 3.687 3.894 6.01 3.894h2.398c5.197 0 5.464 3.739 5.464 4.494 0 1.173-.483 4.993-6.659 4.993-3.511 0-8.608-.29-12.699-.52-2.677-.146-4.984-.276-5.961-.276-.792 0-2.814.085-5.368.198-1.096.043-2.327.099-3.614.147 13.833 9.357 30.518 14.826 48.48 14.826 24.337 0 46.32-10.06 62.05-26.22-.045-.16-.073-.29-.136-.46l-11.12-30.522m-29.01-48.6c-4.166-6.552-12.305-10.522-22.747-17.754-5.862-4.065-11.08-8.06-14.838-13.611-4.903-7.264-4.337-14.615-1.499-18.514.165-.221.226-.264.291-.231.063.032.042.115-.085.306-.211.65-7.684 9.896 10.558 23.595 10.218 7.681 25.468 14.854 29.382 26.595.4 1.199.5 2.062.676 3.632-.576-2.01-1.239-3.222-1.738-4.02"/><path d="m429.61 210.63c-.666.669-1.472 1-2.416 1-.944 0-1.748-.335-2.411-1-.659-.666-.989-1.473-.989-2.42 0-.939.333-1.741.999-2.407.662-.663 1.463-.994 2.401-.994.944 0 1.75.331 2.416.994.666.663.999 1.466.999 2.407 0 .945-.333 1.751-.999 2.42m-4.488-4.492c-.569.572-.854 1.266-.854 2.076 0 .818.283 1.515.85 2.091.569.576 1.262.864 2.076.864.815 0 1.507-.288 2.077-.864.569-.576.854-1.273.854-2.091 0-.811-.285-1.504-.854-2.076-.573-.576-1.266-.864-2.077-.864-.808 0-1.499.288-2.072.864m2.01.19c.464 0 .805.046 1.021.136.388.161.581.478.581.948 0 .335-.122.582-.365.74-.13.083-.311.143-.541.181.292.046.507.169.643.366.136.199.203.393.203.58v.274c0 .087.003.179.01.278.006.1.017.164.032.195l.023.046h-.618c-.003-.013-.006-.024-.01-.037-.003-.013-.006-.026-.009-.042l-.014-.12v-.296c0-.433-.118-.719-.353-.857-.14-.08-.384-.12-.734-.12h-.52v1.473h-.66v-3.745h1.311m.712.591c-.166-.093-.433-.14-.799-.14h-.563v1.357h.596c.279 0 .489-.028.629-.084.258-.102.387-.298.387-.586-.001-.272-.084-.455-.25-.547"/></g></svg>