<svg xmlns="http://www.w3.org/2000/svg" viewBox="0 0 721.937 143.607"><g fill="#fff"><path d="m165.88 99.07h14.2l23.31-34.58 23.4 34.58h13.96l-37.35-56.5z"/><path d="m285.81 74.32c10.407-2.02 16.1-7.01 16.1-14.213 0-12.737-14.403-17.256-26.733-17.256-.306 0-30.53.506-30.53 8.613v47.603h11.813v-24.1h15.12l.045.056c4.097 7.42 11.482 17.938 18.827 23.17 1.924 1.366 5.236 2.098 7.902 2.685l.497-1.587-.356 1.618 1.127.251 5.79-9.05-2.062-.65c-7.659-2.414-13.95-11.664-17.537-17.15m-29.352-19.17c6.438-1.235 12.01-1.813 17.451-1.813 5.834 0 15.625.943 15.625 7.262 0 3.896-9.33 3.896-12.394 3.896h-20.683v-9.345"/><path d="m313.1 45.18h11.813v53.891h-11.813z"/><path d="m364.5 66.69l-3.291-.417c-3.719-.486-14.938-1.946-15.829-6.224.428-3.37 6.85-5.418 10.623-6.102 2.282-.391 4.851-.607 7.234-.607 8.04 0 15.776 1.695 22.98 5.04l1.265.586 6.168-8.901-1.715-.851c-8.713-4.324-17.708-6.425-27.501-6.425-11.239 0-20.11 2.761-26.366 8.199-2.456 2.103-5.078 5.844-5.078 10.04 0 4.809 3.132 11.174 18.04 14.195 2.11.438 4.954.848 7.963 1.282 7.976 1.152 22.824 3.295 22.824 7.138 0 2.169-3.03 4.03-5.85 5.04-3.549 1.242-7.595 1.876-12.02 1.876-8 0-16.72-1.968-22.763-5.151l-1.3-.678-6.274 9.115 1.727.845c9.219 4.504 17.14 6.342 27.345 6.342 13.03 0 28.07-4.067 31.25-15.514.261-1.04.261-1.689.261-2.442 0-2.243-.465-3.885-1.566-5.62-4.607-7.75-19.243-9.632-28.12-10.772"/><path d="m454.36 55.55l6.358-9.347-2.527-.439c-11.301-1.957-21.409-2.909-30.911-2.909-8.857 0-18.761.951-30.28 2.908l-2.634.448 6.888 9.457 1.02-.182c6.14-1.087 12.325-1.734 19.344-2.02v45.603h11.957v-45.512c7.04.385 13.245 1.11 19.792 1.874l.991.117"/><path d="m490.07 42.929c-15.622 0-37.26 10.194-37.26 29.332 0 18.688 18.751 28.771 36.39 28.771 15.23 0 37.27-10.396 37.27-29.19-.001-18.779-18.755-28.911-36.397-28.911m-.935 10.542c10.32 0 25.25 6.742 25.25 18.934 0 13.174-14.952 18.09-24.38 18.09-10.591 0-25.25-6.604-25.25-18.999 0-13.222 14.584-18.02 24.383-18.02"/><path d="m551.72 42.853c-8.855 0-18.758.951-30.27 2.908l-2.63.448 6.879 9.457 1.021-.182c6.138-1.087 12.325-1.734 19.343-2.02v45.603h11.956v-45.512c7.03.385 13.24 1.11 19.788 1.874l.995.117 6.359-9.347-2.527-.439c-11.298-1.957-21.409-2.909-30.913-2.909"/><path d="m642.88 87.58c-8.865 2.087-16.203 2.975-24.559 2.975-7.307 0-13.742-.634-17.953-1.758v-43.624h-11.877v48.02c0 7.459 22.802 7.832 27.373 7.832 10.517 0 20.21-.302 32.31-4.01l2.186-.669-6.392-9.03-1.084.262"/><path d="m707.85 87.58c-8.86 2.087-16.203 2.975-24.556 2.975-7.22 0-13.61-.634-17.809-1.758v-13.271h31.811l7.01-10.06h-38.826v-10.501c6.411-1.392 9.567-1.502 13.527-1.502 10.276 0 19.747.931 28.957 2.847l1.034.215 6.618-8.957-2.302-.653c-9.437-2.681-18.51-3.927-28.55-3.927-19.948 0-30.417 2.705-31.12 8.04-.153.504-.173 1.041-.173 1.556v40.607c0 7.459 22.793 7.832 27.363 7.832 10.516 0 20.21-.302 32.31-4.01l2.188-.669-6.396-9.03-1.084.262"/><path d="m44.911 66.836c4.723 1.521 9.488 2.369 14.181 3.887-4.508-1.804-13.232-5.446-13.232-5.446-.446.376-.728.782-.949 1.559"/><path d="m59.42 86.3c-1.669-.625-3.306-1.294-4.921-1.989 3.925 3.202 8.727 5.963 14.07 7.668 7.728 2.464 13.643.577 17.196-3.151-.986.24-2.026.435-3.103.578-10.551 1.37-21.839-2.589-23.25-3.106"/><path d="m53.904 45.844c.178.093.337.18.501.268 1.761.901 12.955 6.69 20.666 12.07 6.137 4.281 10.401 8.07 12.254 9.809-.7-2.38-2.244-4.981-6.06-8.48-12.387-11.37-24.571-14.742-36.631-21.584-6.03-3.424-11.286-6.905-15.872-11.665-2.234-2.314-3.964-4.923-5.22-7.622-1.89 1.715-3.676 3.54-5.375 5.446 4.086 3.612 8.61 6.788 13.212 9.56 9.436 5.682 14.659 8.07 22.523 12.2"/><path d="m76.28 83.21c-10.556-3.432-21.02-6.362-31.06-10.41.298.816.536 1.271.931 1.968 9.242 2.529 16.988 7.092 25.07 10.1 2.989 1.119 8.339 2.645 13.421 2.517.511-.025.903-.039 1.412-.127-2.854-1.74-6.358-2.944-9.773-4.045"/><path d="m52.655 58.915c-11.225-5.453-22.22-11.206-32.584-18.701-3.154-2.279-5.961-4.777-8.532-7.428-.792 1.226-1.551 2.476-2.271 3.75 3.648 3.557 8.263 7.124 13.693 10.11 10.837 5.956 19.846 8.204 29.694 12.27"/><path d="m102.5 6.886c2.395 6.259 7.85 20.493 7.85 20.493l23.13 59.939c0 0 2.76 7.03 4.691 11.897 3.494-8.445 5.433-17.702 5.433-27.414.001-28.669-16.809-53.41-41.1-64.915"/><path d="m97.27 77.62c-.14-2.312-1.529-4.759-4.235-6.367-1.231-.716-2.616-1.254-4.067-1.605 1.436 1.621 5.097 6.109 7.01 11.632 1.175-1.399 1.342-2.902 1.296-3.66"/><path d="m113.91 96.2l-19.383-53.17-11.295-30.978-7.685 23.25c-.178-.12-.355-.242-.53-.361-2.156-1.461-4.195-2.844-6.02-4.212-1.32-.99-3.283-2.599-4.983-4.482l9.565-26.21c-.588-.014-1.176-.045-1.77-.045-17.954 0-34.35 6.605-46.945 17.496 1.845 2.623 4.317 4.736 7.09 7.07 9.878 8.287 26.536 15.02 38.08 21.844 14.662 8.667 17.791 15.667 18.769 22.895 6.769 1.604 8.856 5.3 9.107 8.253.147 1.593-.413 3.274-1.56 4.867 1.04 3.56 1.277 7.476-.293 11.296-5.77 14.04-22.455 4.751-22.455 4.751s-.216-.121-.084-.403c.136-.289.431-.133.431-.133s9.648 3.398 13.742.233c4.766-3.685 1.59-7.917-.311-9.816-.326.11-.656.215-.99.307-.644.737-1.354 1.417-2.161 2.057-2.55 2.047-5.726 3.372-9.338 3.797-8.993 1.062-17.784-2.268-24.13-7.586-2.419-2.02-4.588-4.328-6.181-6.843-4.371-1.727-8.855-3.16-13.863-3.755-3.365-.401-7.103.29-8.986 2.332-.932 1.029-1.021 2.34-.257 3.548.364.578.905.972 1.542 1.453.086.064.068.153.014.184-.057.032-.155.004-.207-.025-3.687-1.974-3.166-5.829-.16-7.878 3.583-2.458 8.26-3.24 13.222-2.911 2.172.13 4.238.415 6.238.806-.123-.783-.188-1.575-.167-2.38-1.951-.847-3.9-1.747-5.809-2.693-8.57-4.275-15.687-9.01-21.14-15.336-.12-.139-.017-.292.119-.329.082-.022.171.021.244.074 5.603 4.02 13.586 7.893 18.683 9.741 2.878 1.061 6.49 2.564 9.38 3.498.693-.919.937-1.14 1.491-1.551-7.307-3.182-16.451-7.377-25.669-12.928-5.775-3.479-9.703-7.257-12.377-10.811-4.406 9.306-6.878 19.702-6.878 30.68 0 20.1 8.27 38.27 21.585 51.3 6.415-1.549 9.746-7.32 13.1-16.635l7.97-21.639c1.483 1.884 3.253 3.704 5.322 5.428 2.34 1.965 4.924 3.622 7.642 4.962l-4.411 12.916c-1.685 4.685-2.643 9.212-2.643 12.472 0 2.354 3.055 3.227 4.98 3.227h1.987c4.308 0 4.528 3.101 4.528 3.726 0 .972-.4 4.139-5.519 4.139-2.909 0-7.135-.241-10.525-.432-2.219-.122-4.131-.229-4.94-.229-.656 0-2.332.071-4.449.164-.909.035-1.929.082-2.996.123 11.465 7.755 25.293 12.287 40.18 12.287 20.17 0 38.39-8.334 51.43-21.726-.039-.134-.061-.24-.113-.382l-9.217-25.298m-24.05-40.28c-3.453-5.43-10.198-8.72-18.852-14.714-4.858-3.37-9.183-6.678-12.298-11.282-4.063-6.02-3.594-12.11-1.243-15.344.137-.183.188-.218.242-.19.053.026.035.096-.07.253-.175.539-6.368 8.201 8.75 19.556 8.469 6.365 21.11 12.311 24.351 22.04.332.995.415 1.709.561 3.01-.478-1.667-1.028-2.671-1.441-3.33"/><path d="m720.94 57.4c-.666.669-1.472 1-2.416 1-.944 0-1.748-.335-2.411-1-.659-.666-.989-1.473-.989-2.42 0-.938.333-1.741.999-2.407.662-.663 1.463-.994 2.401-.994.944 0 1.75.332 2.416.994.666.663.999 1.465.999 2.407 0 .945-.333 1.751-.999 2.42m-4.488-4.492c-.569.573-.854 1.266-.854 2.077 0 .818.283 1.515.851 2.091.569.576 1.262.864 2.076.864.814 0 1.507-.288 2.077-.864.569-.576.855-1.273.855-2.091 0-.811-.285-1.503-.855-2.077-.573-.576-1.266-.864-2.077-.864-.81 0-1.5.288-2.073.864m2.01.19c.464 0 .805.045 1.022.135.388.161.581.477.581.949 0 .334-.122.581-.365.739-.13.084-.31.144-.541.181.292.046.507.169.643.367.136.198.203.392.203.58v.274c0 .086.003.179.01.278.006.099.017.164.032.195l.023.046h-.618c-.003-.012-.006-.024-.01-.037-.003-.012-.006-.026-.009-.042l-.014-.121v-.296c0-.432-.118-.718-.354-.856-.14-.081-.384-.121-.734-.121h-.52v1.473h-.66v-3.745h1.311zm.712.591c-.166-.093-.433-.14-.799-.14h-.564v1.357h.596c.279 0 .489-.028.629-.084.258-.102.387-.297.387-.585 0-.273-.083-.456-.249-.548"/></g></svg>